<svg width="14" height="14" viewBox="0 0 14 14" fill="none" xmlns="http://www.w3.org/2000/svg">
<path d="M8.64341 6.99901L13.6552 1.99813C13.8747 1.77862 13.998 1.48091 13.998 1.17048C13.998 0.860046 13.8747 0.562331 13.6552 0.342824C13.4358 0.123318 13.1381 0 12.8277 0C12.5173 0 12.2196 0.123318 12.0002 0.342824L7 5.35536L1.99983 0.342824C1.78036 0.123318 1.48268 -2.31288e-09 1.1723 0C0.861913 2.31288e-09 0.56424 0.123318 0.344765 0.342824C0.125289 0.562331 0.00198911 0.860046 0.00198911 1.17048C0.00198911 1.48091 0.125289 1.77862 0.344765 1.99813L5.35659 6.99901L0.344765 11.9999C0.235521 12.1083 0.148811 12.2372 0.0896384 12.3792C0.0304655 12.5213 0 12.6736 0 12.8275C0 12.9814 0.0304655 13.1338 0.0896384 13.2758C0.148811 13.4179 0.235521 13.5468 0.344765 13.6552C0.453117 13.7644 0.582027 13.8512 0.724059 13.9103C0.866091 13.9695 1.01843 14 1.1723 14C1.32616 14 1.47851 13.9695 1.62054 13.9103C1.76257 13.8512 1.89148 13.7644 1.99983 13.6552L7 8.64265L12.0002 13.6552C12.1085 13.7644 12.2374 13.8512 12.3795 13.9103C12.5215 13.9695 12.6738 14 12.8277 14C12.9816 14 13.1339 13.9695 13.2759 13.9103C13.418 13.8512 13.5469 13.7644 13.6552 13.6552C13.7645 13.5468 13.8512 13.4179 13.9104 13.2758C13.9695 13.1338 14 12.9814 14 12.8275C14 12.6736 13.9695 12.5213 13.9104 12.3792C13.8512 12.2372 13.7645 12.1083 13.6552 11.9999L8.64341 6.99901Z" fill="#868E96"/>
</svg>
