<svg width="24" height="24" xmlns="http://www.w3.org/2000/svg"><path fill="current" d="M24 8.375c0 1.424-.219 2.641-.656 3.653-.438 1.012-1.073 1.79-1.907 2.333-.833.543-1.666.936-2.5 1.18-.833.243-1.812.421-2.937.534.792.6 1.188 1.555 1.188 2.867V24H8.5v-3.653c-.667.112-1.281.168-1.844.168-.562 0-1.041-.047-1.437-.14a5.25 5.25 0 01-1.063-.366 3.174 3.174 0 01-.75-.477 4.735 4.735 0 01-.469-.478 1.43 1.43 0 01-.25-.394l-.062-.168a6.382 6.382 0 00-.844-1.35c-.312-.374-.573-.617-.781-.73l-.313-.168C.23 15.906 0 15.672 0 15.54s.146-.216.438-.253h.374c.5.037.98.187 1.438.45.458.262.77.524.938.787l.312.337c1.125 1.761 2.813 2.192 5.063 1.293.124-.9.5-1.593 1.124-2.08-1.124-.112-2.104-.29-2.937-.534a8.978 8.978 0 01-2.469-1.18c-.812-.544-1.448-1.321-1.906-2.333-.458-1.012-.688-2.23-.688-3.653 0-1.612.605-2.998 1.813-4.16-.542-1.236-.48-2.622.188-4.159.124.038.291.028.5-.028.208-.056.729.056 1.562.337.833.281 1.75.722 2.75 1.321a20.41 20.41 0 014.375-.562c1.5.038 2.958.225 4.375.562.958-.6 1.844-1.03 2.656-1.293C20.72.131 21.271 0 21.563 0L22 .056c.708 1.537.77 2.923.188 4.16C23.395 5.376 24 6.762 24 8.374zM2 15.99c.042-.094-.01-.169-.156-.225-.146-.056-.24-.038-.282.056-.041.094.01.169.157.225.146.056.24.037.281-.056zm.719.702c.104-.075.083-.178-.063-.309-.146-.131-.27-.16-.375-.084-.104.075-.083.178.063.309.146.131.27.16.375.084zm.656.9c.125-.075.125-.197 0-.366-.125-.169-.25-.215-.375-.14-.125.075-.125.196 0 .365.125.169.25.215.375.14zm.969.899c.104-.113.073-.253-.094-.422-.167-.168-.313-.197-.438-.084-.124.112-.093.253.094.421.188.17.334.197.438.085zm1.281.478c.042-.132-.052-.235-.281-.31-.23-.075-.365-.037-.407.113-.041.15.053.253.282.309.229.056.364.019.406-.112zm1.063.309c.25 0 .375-.075.375-.225 0-.15-.125-.225-.375-.225s-.375.075-.375.225c0 .15.125.225.375.225zm1.375-.113a.737.737 0 00.28-.14c.063-.056.074-.103.032-.14 0-.188-.125-.263-.375-.226a.737.737 0 00-.281.14c-.063.057-.073.123-.032.198 0 .15.125.206.375.168z"/></svg>