<svg width="24" height="24" viewBox="0 0 24 24" fill="none" xmlns="http://www.w3.org/2000/svg">
<path d="M20.4578 4.54219C19.9691 4.05327 19.3889 3.66542 18.7503 3.40081C18.1117 3.1362 17.4272 3 16.7359 3C16.0446 3 15.3601 3.1362 14.7215 3.40081C14.0829 3.66542 13.5026 4.05327 13.0139 4.54219L11.9997 5.55639L10.9855 4.54219C9.99842 3.55507 8.6596 3.00051 7.26361 3.00051C5.86761 3.00051 4.52879 3.55507 3.54168 4.54219C2.55456 5.5293 2 6.86812 2 8.26412C2 9.66012 2.55456 10.9989 3.54168 11.9861L4.55588 13.0003L11.9997 20.4441L19.4436 13.0003L20.4578 11.9861C20.9467 11.4974 21.3346 10.9171 21.5992 10.2785C21.8638 9.63989 22 8.95539 22 8.26412C22 7.57285 21.8638 6.88835 21.5992 6.24973C21.3346 5.6111 20.9467 5.03088 20.4578 4.54219V4.54219Z" />
</svg>
