<svg version="1.0" xmlns="http://www.w3.org/2000/svg" fill="current" width="440" height="200" viewBox="0 0 330 150"><path d="M24 71.5V97h275V46H24v25.5zm271 0V93H163V50h132v21.5zM61 61c0 1.6-.7 2-3.5 2H54v22h-5V63h-3.5c-2.8 0-3.5-.4-3.5-2 0-1.9.7-2 9.5-2s9.5.1 9.5 2zm20 0c0 1.8-.7 2-6 2-6 0-6 0-6 2.9s.2 3 5.3 3.3c4.4.3 5.2.6 5.2 2.3 0 1.7-.8 2-5.2 2.3l-5.3.3V81h6c5.3 0 6 .2 6 2s-.7 2-8.5 2H64V59h8.5c7.8 0 8.5.2 8.5 2zm20.7.2c3.2 3 3.1 6.8-.1 6.8-1.8 0-2.5-.6-2.8-2.3-.3-1.9-.9-2.2-4.3-2.2h-4v17l3.3.3c2.2.2 4.1-.3 5.3-1.4 1.8-1.6 2.1-1.7 3.6-.1 4.9 4.9-10.2 8.4-15.4 3.5-2.1-1.9-2.3-3.1-2.3-10.7 0-7.3.3-8.8 2.2-10.8 3-3.2 11.1-3.3 14.5-.1zM113 64v5h10v-5c0-4.3.3-5 2-5 1.9 0 2 .7 2 13s-.1 13-2 13c-1.8 0-2-.7-2-5.5V74h-10v5.5c0 4.8-.2 5.5-2 5.5-1.9 0-2-.7-2-13s.1-13 2-13c1.7 0 2 .7 2 5zm35 8c0 1.8-.7 2-8.5 2s-8.5-.2-8.5-2 .7-2 8.5-2 8.5.2 8.5 2z"/><path d="M191 72v13h7.3c6.4 0 7.6-.3 9.5-2.3 2.6-2.7 2.9-7.9.7-9.7-1.1-.9-1.3-1.6-.5-2.4.5-.5 1-2.6 1-4.6 0-5.6-2.3-7-10.8-7H191v13zm13.5-6c0 2.2-.5 2.5-4.2 2.8-4.2.3-4.3.2-4.3-2.8s.1-3.1 4.3-2.8c3.7.3 4.2.6 4.2 2.8zm-.5 8.4c.6.8 1 2.5.8 3.8-.2 1.9-1 2.3-4.5 2.6l-4.3.3v-4c0-4 .1-4.1 3.4-4.1 1.8 0 3.9.7 4.6 1.4zM215 72v13h8c7.3 0 8-.2 8-2s-.7-2-6-2h-6V70c0-10.3-.1-11-2-11s-2 .7-2 13zM236.2 61.3c-1.9 2-2.2 3.5-2.2 10.8 0 7.6.2 8.8 2.3 10.7 3.4 3.2 12.5 3.1 15.5-.1 1.9-2 2.2-3.5 2.2-10.8 0-7.6-.2-8.8-2.3-10.7-3.4-3.2-12.5-3.1-15.5.1zM248.5 72v8.5l-3.8.3c-5.6.5-6.7-.9-6.7-8.7 0-7.9 1-9.3 6.5-8.9l4 .3V72zM260.7 60.8c-1.3 1.5-1.7 3.9-1.7 11.4 0 11.6.9 12.8 9.2 12.8 7.1 0 8.8-1.7 8.8-8.8V71h-5c-4.3 0-5 .3-5 2 0 1.6.7 2 3 2 2.2 0 3 .5 3 1.8 0 2.5-2 4.2-5 4.2-4 0-5-1.8-5-9.1 0-7.6 1.1-9.2 6.2-8.7 2.5.2 3.4.8 3.6 2.5.2 1.5 1 2.3 2.3 2.3 2.5 0 2.6-5 .1-7.3-2.7-2.4-12.3-2.3-14.5.1z"/></svg>