<svg xmlns="http://www.w3.org/2000/svg" width="28" height="28" fill="currentColor" viewBox="0 0 28 28">
  <path d="M21.948 18.32a1.8 1.8 0 01.125-1.047 1.8 1.8 0 011.647-1.091h.098a2.182 2.182 0 000-4.364h-.185a1.8 1.8 0 01-1.648-1.09v-.088a1.799 1.799 0 01.36-1.985l.066-.066a2.181 2.181 0 00-.708-3.56 2.182 2.182 0 00-2.38.473l-.065.065a1.8 1.8 0 01-1.985.36 1.8 1.8 0 01-1.091-1.647v-.098a2.182 2.182 0 00-4.364 0v.185a1.8 1.8 0 01-1.09 1.648h-.088a1.8 1.8 0 01-1.985-.36l-.066-.066a2.182 2.182 0 00-3.727 1.544 2.182 2.182 0 00.64 1.543l.065.066a1.8 1.8 0 01.36 1.985 1.8 1.8 0 01-1.647 1.178h-.098a2.182 2.182 0 100 4.364h.185a1.8 1.8 0 011.648 1.091 1.8 1.8 0 01-.36 1.986l-.066.065a2.182 2.182 0 103.087 3.087l.066-.065a1.8 1.8 0 011.985-.36 1.8 1.8 0 011.178 1.647v.098a2.182 2.182 0 104.364 0v-.185a1.8 1.8 0 011.091-1.648 1.799 1.799 0 011.986.36l.065.066a2.181 2.181 0 003.727-1.544 2.181 2.181 0 00-.64-1.543l-.065-.066a1.8 1.8 0 01-.485-.937zM17.273 14a3.273 3.273 0 11-6.546 0 3.273 3.273 0 016.546 0z"/>
</svg>
