<svg xmlns="http://www.w3.org/2000/svg" width="24" height="24" fill="currentColor" viewBox="0 0 24 24">
  <path d="M18.624 15.6a1.5 1.5 0 01.103-.873 1.5 1.5 0 011.373-.909h.082a1.818 1.818 0 000-3.636h-.155a1.5 1.5 0 01-1.373-.91V9.2a1.5 1.5 0 01.3-1.655l.055-.054a1.819 1.819 0 10-2.573-2.573l-.054.055a1.5 1.5 0 01-1.655.3 1.5 1.5 0 01-.909-1.373v-.082a1.818 1.818 0 00-3.636 0v.155a1.5 1.5 0 01-.91 1.372H9.2a1.5 1.5 0 01-1.655-.3l-.054-.054a1.818 1.818 0 10-2.573 2.573l.055.054a1.5 1.5 0 01.3 1.655 1.5 1.5 0 01-1.373.982h-.082a1.818 1.818 0 000 3.636h.155a1.5 1.5 0 011.372.909 1.5 1.5 0 01-.3 1.654l-.054.055a1.819 1.819 0 102.573 2.573l.054-.055a1.5 1.5 0 011.655-.3 1.5 1.5 0 01.982 1.373v.082a1.818 1.818 0 003.636 0v-.155a1.5 1.5 0 01.909-1.373 1.5 1.5 0 011.654.3l.055.055a1.82 1.82 0 102.573-2.573l-.055-.054a1.5 1.5 0 01-.403-.782zM14.728 12a2.727 2.727 0 11-5.455 0 2.727 2.727 0 015.454 0z"/>
</svg>
