<svg width="current" height="current" viewBox="0 0 15 8" fill="current" xmlns="http://www.w3.org/2000/svg">
<path d="M13.0037 7.00749C12.7701 7.00794 12.5436 6.92657 12.3637 6.77749L7.00373 2.29749L1.63373 6.61749C1.53144 6.70055 1.41374 6.76259 1.2874 6.80002C1.16106 6.83745 1.02857 6.84954 0.897544 6.8356C0.766516 6.82166 0.639534 6.78197 0.523897 6.71879C0.408261 6.65562 0.306249 6.57021 0.223726 6.46749C0.14066 6.3652 0.0786292 6.2475 0.0411975 6.12116C0.00376578 5.99483 -0.00832806 5.86233 0.00561114 5.73131C0.0195503 5.60028 0.0592476 5.47329 0.122421 5.35766C0.185595 5.24202 0.271 5.14001 0.373727 5.05749L6.37373 0.227488C6.55266 0.0804062 6.7771 0 7.00873 0C7.24035 0 7.46479 0.0804062 7.64373 0.227488L13.6437 5.22749C13.745 5.31144 13.8287 5.41454 13.89 5.53088C13.9514 5.64723 13.9892 5.77454 14.0013 5.90552C14.0133 6.03649 13.9995 6.16857 13.9604 6.29417C13.9214 6.41977 13.8579 6.53644 13.7737 6.63749C13.6807 6.7522 13.5634 6.84488 13.4302 6.90885C13.2971 6.97282 13.1514 7.00651 13.0037 7.00749Z" fill="black"/>
</svg>
