<svg width="688" height="328" viewBox="0 0 688 328" fill="none" xmlns="http://www.w3.org/2000/svg">
<path d="M294.659 0H33.4076C3.7042 0 -11.1714 35.9127 9.83214 56.9163L271.084 318.168C292.088 339.172 328 324.296 328 294.592V33.3408C328 14.9272 313.073 0 294.659 0Z" fill="#917E71"/>
<path d="M524 316C607.947 316 676 247.947 676 164C676 80.0527 607.947 12 524 12C440.053 12 372 80.0527 372 164C372 247.947 440.053 316 524 316Z" fill="#B0C096"/>
<path fill-rule="evenodd" clip-rule="evenodd" d="M524 24C446.68 24 384 86.6801 384 164C384 241.32 446.68 304 524 304C601.32 304 664 241.32 664 164C664 86.6801 601.32 24 524 24ZM360 164C360 73.4253 433.425 0 524 0C614.575 0 688 73.4253 688 164C688 254.575 614.575 328 524 328C433.425 328 360 254.575 360 164Z" fill="#907E71"/>
<path opacity="0.7" d="M524 228C559.346 228 588 199.346 588 164C588 128.654 559.346 100 524 100C488.654 100 460 128.654 460 164C460 199.346 488.654 228 524 228Z" fill="#F3F3DB"/>
</svg>
